<svg width="1053" height="957" viewBox="0 0 1053 957" fill="none" xmlns="http://www.w3.org/2000/svg">
<path opacity="0.52" d="M784.018 883.373L384.321 762.183C368.943 757.52 360.257 741.275 364.92 725.897L537.531 156.608C542.193 141.231 558.439 132.544 573.817 137.207L973.514 258.397C988.891 263.06 997.578 279.306 992.915 294.683L820.304 863.972C815.641 879.35 799.396 888.036 784.018 883.373Z" fill="#9E9E9E"/>
<path d="M795.691 854.91L392.065 747.53C376.536 743.399 367.296 727.461 371.428 711.932L524.369 137.047C528.5 121.518 544.438 112.278 559.967 116.41L963.593 223.79C979.122 227.921 988.362 243.859 984.23 259.388L831.289 834.273C827.158 849.802 811.22 859.041 795.691 854.91Z" fill="#F1F2F2"/>
<path d="M845.856 249.147L649.489 196.897L644.054 217.322L840.421 269.573L845.856 249.147Z" fill="#1E1E1E"/>
<path d="M877.47 300.846L596.362 226.048L590.927 246.473L872.035 321.271L877.47 300.846Z" fill="#1E1E1E"/>
<path d="M913.45 380.035L525.786 276.883L522.404 289.594L910.068 392.745L913.45 380.035Z" fill="#575757"/>
<path d="M906.915 404.597L519.251 301.446L515.869 314.157L903.533 417.308L906.915 404.597Z" fill="#575757"/>
<path d="M900.381 429.159L512.717 326.008L509.335 338.719L896.999 441.87L900.381 429.159Z" fill="#575757"/>
<path d="M893.844 453.721L506.18 350.57L502.798 363.281L890.461 466.432L893.844 453.721Z" fill="#575757"/>
<path d="M878.643 510.852L490.979 407.7L487.597 420.411L875.261 523.562L878.643 510.852Z" fill="#575757"/>
<path d="M872.108 535.415L484.444 432.263L481.062 444.974L868.726 548.125L872.108 535.415Z" fill="#575757"/>
<path d="M865.571 559.976L477.907 456.825L474.525 469.536L862.189 572.687L865.571 559.976Z" fill="#575757"/>
<path d="M859.037 584.538L471.373 481.387L467.991 494.098L855.655 597.249L859.037 584.538Z" fill="#575757"/>
<path d="M852.502 609.101L464.838 505.949L461.456 518.66L849.12 621.811L852.502 609.101Z" fill="#575757"/>
<path d="M601.773 594.989L451.769 555.075L448.386 567.786L598.391 607.7L601.773 594.989Z" fill="#1E1E1E"/>
<path d="M839.429 658.224L689.425 618.31L686.043 631.021L836.047 670.934L839.429 658.224Z" fill="#1E1E1E"/>
<path d="M595.237 619.552L445.232 579.638L441.85 592.348L591.855 632.262L595.237 619.552Z" fill="#1E1E1E"/>
<path d="M569.704 715.513L419.699 675.599L418.008 681.954L568.013 721.868L569.704 715.513Z" fill="#1E1E1E"/>
<path d="M489.858 713.763L414.855 693.806L413.164 700.161L488.167 720.118L489.858 713.763Z" fill="#1E1E1E"/>
<path d="M722.932 804.946C718.62 803.799 715.184 800.772 713.506 796.641C712.725 794.717 711.062 793.251 709.056 792.717C708.518 792.574 707.961 792.499 707.401 792.494C706.211 792.484 705.03 792.325 703.89 792.022C697.434 790.304 693.054 784.214 693.476 777.54C693.645 774.85 692.193 772.343 689.774 771.154C686.27 769.431 683.703 766.429 682.546 762.7C681.388 758.971 681.804 755.043 683.716 751.638C685.036 749.289 684.814 746.4 683.151 744.279C680.742 741.207 679.732 737.388 680.307 733.526C680.882 729.664 682.961 726.306 686.161 724.068C688.37 722.524 689.424 719.825 688.845 717.192C688.008 713.38 688.755 709.501 690.948 706.271C693.141 703.041 696.472 700.916 700.326 700.289C702.986 699.856 705.107 697.882 705.728 695.259C706.611 691.531 708.907 688.395 712.194 686.429C715.482 684.462 719.33 683.92 723.028 684.904C723.154 684.937 723.28 684.973 723.406 685.01C723.464 685.028 723.523 685.044 723.582 685.06C726.11 685.732 728.807 684.854 730.455 682.822C733.942 678.521 739.655 676.663 745.009 678.088C747.158 678.66 749.171 679.756 750.829 681.259C751.611 681.967 752.564 682.486 753.583 682.757C755.097 683.16 756.713 683.014 758.13 682.346C761.128 680.932 764.541 680.622 767.739 681.473C772.051 682.62 775.487 685.647 777.164 689.777C777.945 691.701 779.609 693.168 781.615 693.701C782.153 693.845 782.71 693.919 783.27 693.924C784.46 693.934 785.642 694.093 786.782 694.396C793.237 696.113 797.617 702.204 797.195 708.878C797.026 711.568 798.478 714.075 800.897 715.264C804.401 716.986 806.967 719.989 808.125 723.718C809.283 727.446 808.867 731.375 806.955 734.779C805.635 737.129 805.857 740.018 807.52 742.139C809.929 745.211 810.939 749.03 810.364 752.892C809.789 756.754 807.71 760.113 804.51 762.35C802.301 763.894 801.247 766.593 801.826 769.225C802.663 773.039 801.916 776.918 799.723 780.148C797.529 783.378 794.198 785.502 790.345 786.129C787.685 786.562 785.565 788.536 784.943 791.159C784.061 794.886 781.764 798.022 778.477 799.989C775.189 801.956 771.341 802.497 767.643 801.513C767.517 801.48 767.391 801.444 767.265 801.407C767.206 801.39 767.148 801.373 767.088 801.358C764.561 800.685 761.864 801.564 760.216 803.595C756.729 807.895 751.016 809.754 745.663 808.33C743.513 807.758 741.501 806.661 739.842 805.159C739.06 804.449 738.108 803.931 737.089 803.66C735.574 803.257 733.959 803.403 732.542 804.071C729.543 805.486 726.13 805.796 722.932 804.946Z" fill="#575757"/>
<path d="M766.785 685.058C769.812 685.863 772.449 688.028 773.726 691.173C774.969 694.231 777.565 696.463 780.661 697.286C781.49 697.507 782.355 697.626 783.239 697.634C784.135 697.641 785.002 697.762 785.827 697.981C790.48 699.219 793.811 703.606 793.492 708.644C793.229 712.821 795.504 716.746 799.259 718.593C804.594 721.216 806.631 727.78 803.72 732.962C801.67 736.611 802.017 741.134 804.6 744.428C808.267 749.105 807.255 755.903 802.384 759.309C798.954 761.707 797.304 765.933 798.201 770.021C799.477 775.826 795.615 781.512 789.748 782.467C785.618 783.14 782.297 786.231 781.333 790.303C779.985 795.993 774.21 799.422 768.596 797.928C768.503 797.903 768.409 797.877 768.316 797.85C768.225 797.823 768.133 797.797 768.041 797.772C764.106 796.725 759.91 798.082 757.334 801.259C754.668 804.546 750.428 805.759 746.616 804.745C745.074 804.335 743.601 803.56 742.333 802.41C741.082 801.276 739.606 800.492 738.042 800.075C735.727 799.46 733.218 799.651 730.959 800.716C728.653 801.803 726.159 801.965 723.885 801.36C720.858 800.554 718.221 798.39 716.943 795.244C715.701 792.186 713.105 789.955 710.009 789.131C709.18 788.911 708.315 788.791 707.431 788.784C706.535 788.776 705.668 788.656 704.843 788.436C700.19 787.199 696.859 782.811 697.177 777.773C697.441 773.596 695.165 769.671 691.41 767.824C686.076 765.202 684.038 758.637 686.949 753.455C688.999 749.807 688.652 745.283 686.07 741.99C682.402 737.312 683.414 730.514 688.286 727.108C691.715 724.71 693.365 720.484 692.468 716.397C691.193 710.591 695.054 704.905 700.921 703.95C705.051 703.278 708.372 700.186 709.336 696.114C710.684 690.424 716.459 686.996 722.073 688.49C722.166 688.514 722.26 688.54 722.353 688.568C722.445 688.595 722.536 688.62 722.628 688.645C726.563 689.692 730.759 688.335 733.335 685.159C736 681.872 740.241 680.659 744.053 681.673C745.595 682.083 747.068 682.858 748.336 684.008C749.587 685.141 751.063 685.926 752.627 686.342C754.942 686.958 757.451 686.767 759.71 685.702C762.017 684.614 764.511 684.453 766.785 685.058ZM768.692 677.887C764.65 676.812 760.336 677.204 756.547 678.99C755.92 679.286 755.206 679.35 754.536 679.172C754.08 679.05 753.671 678.828 753.32 678.51C751.225 676.612 748.681 675.226 745.962 674.502C739.198 672.702 731.98 675.051 727.573 680.485C726.845 681.383 725.653 681.772 724.536 681.475C724.51 681.468 724.484 681.46 724.458 681.453C724.299 681.406 724.14 681.361 723.982 681.319C719.308 680.075 714.445 680.759 710.29 683.245C706.136 685.729 703.233 689.692 702.117 694.404C701.843 695.563 700.906 696.436 699.73 696.627C694.93 697.408 690.611 700.163 687.879 704.186C685.147 708.208 684.178 713.239 685.221 717.988C685.477 719.152 685.011 720.345 684.035 721.028C680.05 723.814 677.354 728.17 676.637 732.979C675.921 737.789 677.231 742.742 680.232 746.568C680.967 747.506 681.065 748.783 680.481 749.821C678.1 754.061 677.56 759.156 679.002 763.799C680.444 768.443 683.773 772.337 688.137 774.483C689.206 775.009 689.848 776.116 689.773 777.305C689.241 785.739 694.776 793.436 702.936 795.606C704.377 795.99 705.869 796.191 707.371 796.203C707.619 796.205 707.865 796.238 708.102 796.301C708.989 796.537 709.724 797.186 710.07 798.036C712.189 803.256 716.53 807.08 721.978 808.53C726.021 809.606 730.334 809.214 734.124 807.427C734.75 807.132 735.464 807.067 736.134 807.246C736.59 807.367 737 807.59 737.351 807.908C739.446 809.806 741.99 811.192 744.708 811.915C751.472 813.714 758.691 811.366 763.097 805.932C763.826 805.034 765.018 804.645 766.134 804.943C766.16 804.95 766.186 804.957 766.213 804.965C766.371 805.011 766.53 805.056 766.688 805.098C771.363 806.342 776.226 805.658 780.381 803.173C784.535 800.688 787.437 796.725 788.553 792.014C788.827 790.855 789.765 789.982 790.941 789.791C795.74 789.009 800.059 786.254 802.791 782.232C805.523 778.209 806.492 773.178 805.449 768.429C805.193 767.266 805.659 766.073 806.636 765.39C810.621 762.604 813.317 758.247 814.033 753.438C814.749 748.628 813.439 743.676 810.439 739.849C809.704 738.912 809.606 737.635 810.189 736.596C812.571 732.357 813.11 727.262 811.668 722.618C810.227 717.974 806.897 714.08 802.534 711.935C801.465 711.409 800.822 710.301 800.898 709.112C801.43 700.678 795.894 692.982 787.735 690.811C786.294 690.428 784.801 690.227 783.3 690.215C783.052 690.213 782.806 690.18 782.568 690.116C781.682 689.881 780.947 689.232 780.601 688.382C778.481 683.162 774.141 679.337 768.692 677.887Z" fill="#1E1E1E"/>
<path d="M702.306 745.427C700.674 744.993 699.497 743.479 699.555 741.718C699.671 738.264 700.184 734.804 701.08 731.436C706.964 709.318 728.493 694.85 751.158 697.783C753.191 698.044 754.624 699.906 754.361 701.938C754.099 703.97 752.239 705.404 750.206 705.141C731.218 702.684 713.181 714.809 708.25 733.344C707.498 736.171 707.067 739.072 706.97 741.966C706.902 744.014 705.187 745.619 703.139 745.55C702.852 745.54 702.573 745.498 702.306 745.427Z" fill="#1E1E1E"/>
<path d="M784.184 733.108C783.031 732.801 782.046 731.944 781.628 730.731C778.877 722.755 773.504 715.815 766.499 711.186C764.79 710.057 764.32 707.755 765.45 706.046C766.579 704.337 768.879 703.865 770.59 704.996C778.95 710.519 785.361 718.8 788.642 728.311C789.31 730.248 788.282 732.36 786.344 733.029C785.621 733.278 784.872 733.29 784.184 733.108Z" fill="#1E1E1E"/>
<path d="M761.676 785.164C760.635 784.887 759.724 784.162 759.246 783.105C758.403 781.237 759.234 779.04 761.101 778.197C769.706 774.313 776.548 767.454 780.368 758.885C781.203 757.013 783.397 756.171 785.267 757.007C787.139 757.841 787.979 760.034 787.145 761.905C782.583 772.139 774.418 780.326 764.153 784.959C763.344 785.325 762.472 785.376 761.676 785.164Z" fill="#1E1E1E"/>
<path d="M733.561 787.464C722.724 784.581 713.349 777.85 707.163 768.509C706.032 766.801 706.5 764.499 708.208 763.368C709.916 762.237 712.218 762.704 713.349 764.412C718.532 772.238 726.387 777.878 735.469 780.294C739.907 781.475 744.452 781.855 748.978 781.422C751.018 781.229 752.829 782.723 753.024 784.762C753.218 786.802 751.723 788.614 749.683 788.808C744.278 789.325 738.854 788.872 733.561 787.464Z" fill="#1E1E1E"/>
<path d="M761.688 733.603C760.92 733.399 760.212 732.946 759.693 732.265C757.248 729.052 753.888 726.804 749.976 725.763C747.373 725.071 744.722 724.963 742.098 725.444C740.083 725.813 738.15 724.478 737.78 722.463C737.411 720.447 738.746 718.514 740.762 718.145C744.472 717.466 748.213 717.616 751.883 718.593C757.403 720.061 762.146 723.235 765.597 727.772C766.838 729.402 766.522 731.729 764.891 732.97C763.943 733.693 762.758 733.887 761.688 733.603Z" fill="#1E1E1E"/>
<path d="M758.347 763.484C757.632 763.294 756.967 762.889 756.457 762.278C755.143 760.706 755.353 758.366 756.925 757.053C759.792 754.658 761.816 751.476 762.781 747.851C763.147 746.476 763.351 745.065 763.387 743.658C763.44 741.61 765.143 739.993 767.192 740.046C769.241 740.1 770.857 741.803 770.805 743.85C770.753 745.836 770.466 747.824 769.951 749.759C768.59 754.873 765.731 759.364 761.682 762.747C760.72 763.55 759.472 763.784 758.347 763.484Z" fill="#1E1E1E"/>
<path d="M734.834 766.355C734.605 766.295 734.379 766.211 734.159 766.104C723.246 760.789 717.594 748.406 720.719 736.66C721.414 734.044 722.509 731.577 723.971 729.326C725.088 727.607 727.384 727.121 729.103 728.236C730.821 729.352 731.309 731.65 730.193 733.368C729.158 734.961 728.383 736.71 727.889 738.567C725.674 746.893 729.678 755.668 737.408 759.433C739.25 760.33 740.016 762.55 739.119 764.393C738.329 766.015 736.513 766.802 734.834 766.355Z" fill="#1E1E1E"/>
<path opacity="0.52" d="M258.136 181.115L240.07 152.855C234.232 143.723 223.071 139.536 212.667 142.574L58.0297 187.734C44.3907 191.717 36.5631 206.003 40.5463 219.642L220.238 834.94C224.221 848.579 238.506 856.406 252.145 852.423L686.308 725.63C699.947 721.647 707.774 707.361 703.791 693.723L542.963 143.019C538.98 129.38 524.695 121.552 511.056 125.536L285.539 191.395C275.135 194.434 263.974 190.246 258.136 181.115Z" fill="#9E9E9E"/>
<path d="M468.501 70.4293L479.595 104.071L96.4352 230.416L77.4813 172.935L436.802 54.451C449.97 50.1092 464.16 57.2648 468.501 70.4293Z" fill="white"/>
<path d="M674.585 691.764L625.103 708.08L245.037 833.405C231.544 837.855 216.996 830.524 212.549 817.028L124.86 551.104L11.8125 208.273C7.36535 194.777 14.6963 180.232 28.189 175.782L181.184 125.334C191.476 121.939 202.777 125.74 208.923 134.666L227.952 162.289C234.098 171.215 245.399 175.015 255.691 171.621L478.81 98.0494C492.306 93.5992 506.851 100.93 511.301 114.426L523.463 151.306L571.846 298.038L690.962 659.276C695.412 672.769 688.078 687.317 674.585 691.764Z" fill="#D97757"/>
<path d="M234.658 809.739L33.9232 200.981C29.4737 187.487 36.8056 172.941 50.2995 168.492L28.1899 175.782C14.6959 180.232 7.36401 194.778 11.8135 208.272L212.548 817.03C216.997 830.524 231.543 837.856 245.037 833.407L267.147 826.116C253.653 830.565 239.107 823.233 234.658 809.739Z" fill="#BE5C3B"/>
<path opacity="0.52" d="M262.923 154.358C260.233 155.245 257.046 154.894 254.024 153.816C251.57 152.941 249.327 151.563 247.358 149.858C247.358 149.858 220.289 126.148 220.048 125.924L205.526 130.713C206.78 131.887 207.92 133.207 208.923 134.665L227.952 162.288C234.099 171.213 245.399 175.017 255.692 171.623L477.727 98.408L473.301 84.9869L262.923 154.358Z" fill="#9E9E9E"/>
</svg>
