<svg width="663" height="800" viewBox="0 0 663 800" fill="none" xmlns="http://www.w3.org/2000/svg">
<path d="M507.996 666.318L107.958 655.102C93.7556 654.705 82.5619 642.869 82.9634 628.664L90.809 348.765L158.971 40.1727C162.437 24.4815 177.966 14.5707 193.657 18.0369L601.492 108.117L601.508 108.121L597.176 262.563L507.996 666.318Z" fill="#BE5C3B"/>
<path opacity="0.52" d="M443.988 787.012L42.5127 671.851C27.0666 667.42 18.1368 651.307 22.5673 635.861L186.592 64.0392C191.023 48.5931 207.136 39.6633 222.582 44.0938L624.057 159.255C639.503 163.686 648.433 179.799 644.002 195.245L479.978 767.067C475.547 782.513 459.434 791.443 443.988 787.012Z" fill="#9E9E9E"/>
<path d="M455.231 758.378L50.0347 657.084C34.4455 653.186 24.9671 637.39 28.8643 621.8L173.138 44.6792C177.035 29.09 192.832 19.6116 208.421 23.5088L613.617 124.803C629.206 128.7 638.685 144.497 634.788 160.086L490.514 737.207C486.617 752.797 470.82 762.275 455.231 758.378Z" fill="white"/>
<path d="M496.312 151.903L299.175 102.621L294.049 123.127L491.186 172.409L496.312 151.903Z" fill="#1E1E1E"/>
<path d="M528.703 203.12L246.493 132.571L241.367 153.077L523.577 223.626L528.703 203.12Z" fill="#1E1E1E"/>
<path d="M565.873 281.759L176.689 184.468L173.499 197.228L562.683 294.52L565.873 281.759Z" fill="#575757"/>
<path d="M559.709 306.418L170.525 209.127L167.335 221.887L556.519 319.178L559.709 306.418Z" fill="#575757"/>
<path d="M553.544 331.077L164.36 233.786L161.17 246.546L550.354 343.837L553.544 331.077Z" fill="#575757"/>
<path d="M547.38 355.736L158.196 258.444L155.006 271.205L544.19 368.496L547.38 355.736Z" fill="#575757"/>
<path d="M533.042 413.09L143.858 315.799L140.668 328.559L529.852 425.851L533.042 413.09Z" fill="#575757"/>
<path d="M526.877 437.749L137.693 340.458L134.503 353.218L523.687 450.509L526.877 437.749Z" fill="#575757"/>
<path d="M520.713 462.409L131.529 365.117L128.339 377.878L517.523 475.169L520.713 462.409Z" fill="#575757"/>
<path d="M514.549 487.067L125.365 389.776L122.175 402.536L511.359 499.828L514.549 487.067Z" fill="#575757"/>
<path d="M508.384 511.726L119.2 414.434L116.01 427.195L505.194 524.486L508.384 511.726Z" fill="#575757"/>
<path d="M257.464 501.399L106.871 463.752L103.681 476.513L254.274 514.159L257.464 501.399Z" fill="#1E1E1E"/>
<path d="M496.055 561.044L345.462 523.397L342.272 536.158L492.865 573.804L496.055 561.044Z" fill="#1E1E1E"/>
<path d="M251.299 526.058L100.707 488.412L97.5167 501.172L248.11 538.819L251.299 526.058Z" fill="#1E1E1E"/>
<path d="M227.216 622.395L76.6237 584.749L75.0287 591.129L225.621 628.776L227.216 622.395Z" fill="#1E1E1E"/>
<path d="M147.351 621.851L72.0544 603.028L70.4594 609.408L145.756 628.231L147.351 621.851Z" fill="#1E1E1E"/>
<path d="M381.728 709.515C377.399 708.432 373.918 705.458 372.179 701.353C371.369 699.441 369.683 697.999 367.67 697.496C367.129 697.361 366.571 697.294 366.011 697.298C364.822 697.306 363.638 697.165 362.493 696.879C356.012 695.259 351.542 689.235 351.863 682.555C351.992 679.863 350.501 677.378 348.065 676.226C344.536 674.556 341.924 671.593 340.71 667.881C339.497 664.17 339.853 660.236 341.714 656.803C342.999 654.434 342.733 651.549 341.039 649.453C338.584 646.418 337.516 642.615 338.033 638.745C338.55 634.875 340.578 631.485 343.744 629.2C345.929 627.623 346.942 624.908 346.324 622.284C345.43 618.485 346.118 614.595 348.262 611.332C350.407 608.07 353.705 605.895 357.549 605.21C360.203 604.737 362.293 602.731 362.875 600.099C363.702 596.359 365.95 593.188 369.207 591.173C372.465 589.157 376.304 588.557 380.017 589.485C380.144 589.517 380.271 589.551 380.397 589.586C380.455 589.603 380.514 589.618 380.574 589.633C383.111 590.267 385.795 589.348 387.412 587.292C390.834 582.939 396.519 580.995 401.893 582.339C404.05 582.878 406.08 583.945 407.76 585.423C408.553 586.119 409.513 586.623 410.536 586.879C412.057 587.259 413.669 587.088 415.076 586.399C418.053 584.941 421.461 584.579 424.672 585.381C429.001 586.464 432.481 589.439 434.22 593.543C435.031 595.455 436.716 596.897 438.73 597.4C439.271 597.535 439.828 597.601 440.388 597.598C441.578 597.589 442.762 597.73 443.906 598.016C450.387 599.636 454.857 605.661 454.537 612.341C454.407 615.033 455.898 617.517 458.335 618.67C461.864 620.34 464.475 623.303 465.689 627.014C466.903 630.725 466.546 634.659 464.685 638.092C463.401 640.461 463.666 643.346 465.361 645.442C467.816 648.478 468.884 652.281 468.367 656.151C467.849 660.021 465.821 663.411 462.655 665.696C460.47 667.273 459.457 669.988 460.075 672.611C460.97 676.412 460.281 680.302 458.137 683.565C455.992 686.827 452.693 689.001 448.85 689.686C446.196 690.159 444.107 692.165 443.525 694.796C442.698 698.537 440.449 701.707 437.192 703.723C433.934 705.739 430.095 706.338 426.382 705.41C426.255 705.379 426.129 705.345 426.003 705.31C425.944 705.294 425.884 705.278 425.825 705.263C423.288 704.629 420.604 705.548 418.987 707.604C415.565 711.956 409.881 713.901 404.507 712.557C402.349 712.018 400.32 710.952 398.639 709.474C397.846 708.777 396.886 708.273 395.864 708.017C394.343 707.637 392.73 707.807 391.323 708.497C388.346 709.955 384.939 710.317 381.728 709.515Z" fill="#575757"/>
<path d="M423.772 588.98C426.811 589.74 429.48 591.865 430.804 594.99C432.092 598.03 434.722 600.222 437.83 600.999C438.662 601.207 439.529 601.313 440.413 601.307C441.309 601.301 442.177 601.409 443.006 601.616C447.676 602.783 451.073 607.12 450.831 612.163C450.63 616.343 452.964 620.233 456.747 622.023C462.12 624.565 464.256 631.098 461.423 636.323C459.429 640.003 459.844 644.52 462.475 647.774C466.213 652.396 465.303 659.209 460.484 662.688C457.09 665.137 455.504 669.387 456.463 673.461C457.825 679.247 454.05 684.99 448.198 686.033C444.078 686.768 440.805 689.909 439.901 693.996C438.639 699.705 432.916 703.22 427.28 701.811C427.187 701.788 427.093 701.763 427 701.737C426.908 701.711 426.816 701.687 426.724 701.664C422.773 700.676 418.598 702.096 416.07 705.311C413.455 708.637 409.232 709.914 405.406 708.958C403.858 708.571 402.374 707.818 401.088 706.687C399.821 705.573 398.333 704.811 396.763 704.418C394.439 703.837 391.933 704.066 389.69 705.165C387.401 706.287 384.91 706.486 382.627 705.915C379.587 705.155 376.919 703.031 375.594 699.905C374.306 696.866 371.676 694.673 368.569 693.897C367.737 693.689 366.87 693.582 365.986 693.588C365.09 693.594 364.221 693.487 363.392 693.28C358.722 692.112 355.326 687.775 355.568 682.733C355.768 678.553 353.434 674.662 349.651 672.872C344.278 670.33 342.142 663.797 344.975 658.572C346.97 654.893 346.554 650.375 343.923 647.121C340.185 642.499 341.095 635.687 345.915 632.208C349.308 629.758 350.894 625.508 349.935 621.434C348.573 615.648 352.348 609.905 358.2 608.862C362.32 608.128 365.593 604.986 366.497 600.9C367.759 595.19 373.482 591.675 379.118 593.084C379.211 593.108 379.305 593.133 379.398 593.159C379.49 593.184 379.582 593.209 379.674 593.232C383.625 594.219 387.8 592.799 390.328 589.585C392.944 586.258 397.166 584.981 400.993 585.938C402.54 586.325 404.024 587.078 405.31 588.208C406.578 589.322 408.065 590.085 409.635 590.478C411.96 591.059 414.465 590.829 416.708 589.73C418.998 588.609 421.489 588.41 423.772 588.98ZM425.571 581.782C421.512 580.768 417.205 581.224 413.444 583.067C412.821 583.373 412.108 583.448 411.435 583.279C410.978 583.165 410.565 582.948 410.21 582.636C408.086 580.769 405.522 579.422 402.793 578.739C396.002 577.042 388.82 579.498 384.496 584.998C383.781 585.907 382.595 586.314 381.474 586.034C381.448 586.027 381.422 586.02 381.395 586.013C381.236 585.968 381.076 585.926 380.918 585.886C376.225 584.713 371.373 585.47 367.256 588.018C363.14 590.565 360.297 594.571 359.252 599.298C358.995 600.462 358.071 601.348 356.898 601.557C352.111 602.411 347.834 605.23 345.163 609.294C342.492 613.357 341.599 618.402 342.714 623.135C342.987 624.294 342.539 625.494 341.573 626.192C337.63 629.037 335 633.434 334.356 638.253C333.712 643.073 335.097 648.006 338.154 651.786C338.904 652.713 339.021 653.988 338.453 655.035C336.135 659.31 335.673 664.412 337.184 669.034C338.695 673.656 342.083 677.499 346.478 679.579C347.555 680.089 348.214 681.187 348.157 682.377C347.752 690.818 353.402 698.43 361.593 700.478C363.041 700.84 364.536 701.018 366.037 701.008C366.285 701.006 366.532 701.035 366.77 701.095C367.66 701.317 368.405 701.955 368.763 702.8C370.961 707.987 375.359 711.746 380.828 713.113C384.887 714.128 389.194 713.672 392.956 711.828C393.578 711.523 394.291 711.448 394.964 711.616C395.422 711.731 395.834 711.947 396.19 712.26C398.313 714.127 400.878 715.474 403.607 716.156C410.398 717.854 417.58 715.397 421.904 709.897C422.619 708.988 423.805 708.582 424.926 708.862C424.952 708.869 424.978 708.875 425.005 708.883C425.164 708.927 425.323 708.97 425.482 709.009C430.175 710.182 435.027 709.426 439.144 706.878C443.261 704.331 446.103 700.324 447.148 695.597C447.405 694.434 448.329 693.547 449.502 693.338C454.289 692.485 458.566 689.665 461.237 685.602C463.909 681.539 464.801 676.494 463.687 671.761C463.414 670.601 463.862 669.401 464.828 668.704C468.77 665.858 471.401 661.462 472.044 656.642C472.688 651.822 471.304 646.89 468.246 643.109C467.497 642.183 467.379 640.907 467.947 639.86C470.265 635.585 470.727 630.483 469.216 625.862C467.705 621.24 464.317 617.396 459.922 615.316C458.845 614.807 458.186 613.709 458.243 612.519C458.648 604.078 452.998 596.466 444.807 594.418C443.36 594.056 441.865 593.878 440.363 593.888C440.115 593.89 439.869 593.86 439.63 593.801C438.74 593.578 437.995 592.941 437.637 592.096C435.438 586.909 431.04 583.15 425.571 581.782Z" fill="#1E1E1E"/>
<path d="M360.208 650.312C358.57 649.903 357.37 648.406 357.402 646.645C357.465 643.189 357.927 639.723 358.772 636.341C364.323 614.137 385.632 599.347 408.338 601.938C410.374 602.169 411.836 604.009 411.604 606.045C411.372 608.08 409.533 609.542 407.497 609.31C388.474 607.139 370.621 619.534 365.97 638.141C365.26 640.979 364.874 643.886 364.821 646.781C364.783 648.83 363.092 650.46 361.044 650.423C360.756 650.417 360.476 650.379 360.208 650.312Z" fill="#1E1E1E"/>
<path d="M441.892 636.761C440.734 636.472 439.737 635.63 439.3 634.423C436.43 626.49 430.953 619.631 423.88 615.108C422.153 614.005 421.648 611.711 422.752 609.984C423.856 608.258 426.149 607.752 427.876 608.857C436.318 614.254 442.854 622.437 446.277 631.898C446.974 633.825 445.978 635.952 444.051 636.649C443.331 636.91 442.583 636.934 441.892 636.761Z" fill="#1E1E1E"/>
<path d="M420.17 689.151C419.125 688.89 418.203 688.179 417.709 687.128C416.838 685.273 417.636 683.064 419.49 682.193C428.035 678.18 434.774 671.219 438.465 662.593C439.271 660.709 441.453 659.835 443.335 660.642C445.219 661.448 446.092 663.628 445.286 665.512C440.879 675.812 432.838 684.122 422.644 688.909C421.84 689.287 420.969 689.351 420.17 689.151Z" fill="#1E1E1E"/>
<path d="M392.092 691.873C381.213 689.153 371.738 682.564 365.412 673.318C364.255 671.627 364.688 669.318 366.379 668.161C368.07 667.004 370.379 667.437 371.536 669.128C376.836 676.874 384.775 682.396 393.892 684.675C398.348 685.789 402.898 686.1 407.416 685.599C409.453 685.376 411.286 686.842 411.512 688.878C411.737 690.915 410.269 692.749 408.233 692.974C402.836 693.572 397.405 693.201 392.092 691.873Z" fill="#1E1E1E"/>
<path d="M419.407 637.596C418.636 637.403 417.921 636.962 417.391 636.288C414.899 633.113 411.505 630.915 407.578 629.934C404.965 629.28 402.313 629.213 399.696 629.733C397.687 630.133 395.734 628.827 395.334 626.817C394.935 624.807 396.24 622.855 398.25 622.455C401.95 621.72 405.693 621.814 409.377 622.735C414.919 624.121 419.709 627.223 423.228 631.707C424.493 633.318 424.212 635.65 422.6 636.915C421.663 637.652 420.481 637.864 419.407 637.596Z" fill="#1E1E1E"/>
<path d="M416.515 667.524C415.797 667.344 415.126 666.949 414.607 666.346C413.27 664.794 413.444 662.452 414.997 661.114C417.827 658.677 419.804 655.465 420.714 651.826C421.059 650.445 421.241 649.032 421.256 647.624C421.278 645.576 422.957 643.933 425.006 643.955C427.056 643.979 428.698 645.656 428.676 647.705C428.654 649.691 428.397 651.683 427.912 653.625C426.628 658.76 423.837 663.293 419.839 666.736C418.889 667.554 417.645 667.806 416.515 667.524Z" fill="#1E1E1E"/>
<path d="M393.047 670.749C392.818 670.692 392.591 670.611 392.369 670.508C381.377 665.358 375.539 653.062 378.487 641.27C379.143 638.644 380.201 636.16 381.629 633.888C382.719 632.153 385.008 631.632 386.744 632.721C388.478 633.811 389 636.102 387.91 637.836C386.899 639.444 386.151 641.205 385.685 643.069C383.595 651.427 387.731 660.141 395.517 663.789C397.372 664.658 398.171 666.867 397.302 668.723C396.537 670.356 394.734 671.171 393.047 670.749Z" fill="#1E1E1E"/>
</svg>
