<svg width="345" height="324" viewBox="0 0 345 324" fill="none" xmlns="http://www.w3.org/2000/svg">
<path d="M153.958 0H63.7714L0 63.7714V153.958L63.7714 217.729H153.958L217.729 153.958V63.7714L153.958 0Z" fill="#D97757"/>
<path d="M127.901 79.3606C131.917 79.3607 135.172 82.6157 135.172 86.6311C135.172 90.6466 131.917 93.9015 127.901 93.9016H115.367V123.117L115.293 123.633C113.187 138.244 100.564 143.027 93.2822 142.271C89.2885 141.856 86.3871 138.282 86.8018 134.288C87.2166 130.294 90.7912 127.392 94.7852 127.807C94.787 127.807 94.7955 127.808 94.8105 127.809C94.8278 127.81 94.8527 127.811 94.8848 127.811C94.9498 127.811 95.0383 127.808 95.1484 127.798C95.3724 127.778 95.6558 127.732 95.9795 127.648C96.6352 127.476 97.3485 127.172 98.0117 126.718C99.1363 125.948 100.347 124.605 100.826 122.008V93.9016H88.1035C84.088 93.9016 80.833 90.6466 80.833 86.6311C80.8331 82.6157 84.0881 79.3606 88.1035 79.3606H127.901Z" fill="white"/>
<path d="M148.754 72.4728C148.754 68.563 145.584 65.3934 141.675 65.3934H75.4728C71.563 65.3934 68.3934 68.563 68.3934 72.4728V145.563C68.3934 149.473 71.563 152.642 75.4728 152.642H141.675C145.584 152.642 148.754 149.473 148.754 145.563V72.4728ZM162.147 145.563C162.147 156.87 152.981 166.036 141.675 166.036H75.4728C64.166 166.036 55 156.87 55 145.563V72.4728C55 61.166 64.166 52 75.4728 52H141.675C152.981 52 162.147 61.166 162.147 72.4728V145.563Z" fill="white"/>
<path d="M314.766 97.2241H273.162L243.743 126.643V168.247L273.162 197.666H314.766L344.185 168.247V126.643L314.766 97.2241Z" fill="#D97757"/>
<path d="M314.767 198.762C314.162 198.762 313.672 198.272 313.672 197.667V155.5C313.672 155.209 313.787 154.931 313.993 154.726L343.131 125.588C343.558 125.161 344.252 125.161 344.679 125.588C345.107 126.016 345.107 126.709 344.679 127.137L315.862 155.953V197.667C315.862 198.272 315.371 198.762 314.767 198.762Z" fill="white"/>
<path d="M243.742 169.342C243.462 169.342 243.182 169.235 242.968 169.022C242.541 168.594 242.541 167.901 242.968 167.473L278.372 132.069V99.1328C278.372 98.5278 278.863 98.0378 279.467 98.0378C280.072 98.0378 280.562 98.5283 280.562 99.1328V132.522C280.562 132.813 280.447 133.091 280.241 133.297L244.516 169.021C244.303 169.236 244.022 169.342 243.742 169.342Z" fill="white"/>
<path d="M261.605 184.778C261.324 184.778 261.045 184.671 260.831 184.457C260.403 184.029 260.403 183.336 260.831 182.908L314.107 129.632V97.2243C314.107 96.6193 314.598 96.1294 315.203 96.1294C315.808 96.1294 316.298 96.6198 316.298 97.2243V130.086C316.298 130.376 316.182 130.655 315.977 130.86L262.38 184.457C262.165 184.671 261.885 184.778 261.605 184.778Z" fill="white"/>
<path d="M297.329 179.22C297.329 181.685 295.331 183.683 292.867 183.683C290.402 183.683 288.404 181.685 288.404 179.22C288.404 176.756 290.402 174.758 292.867 174.758C295.331 174.758 297.329 176.756 297.329 179.22Z" fill="white"/>
<path d="M266.066 129.228C266.066 131.692 264.069 133.69 261.604 133.69C259.139 133.69 257.142 131.693 257.142 129.228C257.142 126.763 259.139 124.766 261.604 124.766C264.069 124.766 266.066 126.763 266.066 129.228Z" fill="white"/>
<path d="M335.493 157.552C335.493 160.017 333.495 162.014 331.031 162.014C328.566 162.014 326.568 160.017 326.568 157.552C326.568 155.087 328.566 153.09 331.031 153.09C333.495 153.09 335.493 155.087 335.493 157.552Z" fill="white"/>
<path d="M249.787 190.675H195.388L156.922 229.14V283.54L195.388 322.006H249.787L288.253 283.54V229.14L249.787 190.675Z" fill="#D97757"/>
<path d="M265.357 306.211C264.752 306.211 264.262 305.72 264.262 305.115V274.59L229.611 239.938C229.406 239.733 229.29 239.454 229.29 239.164V190.674C229.29 190.069 229.78 189.579 230.385 189.579C230.99 189.579 231.48 190.069 231.48 190.674V238.711L266.131 273.362C266.336 273.567 266.451 273.846 266.451 274.136V305.115C266.452 305.72 265.962 306.211 265.357 306.211Z" fill="white"/>
<path d="M249.787 323.101C249.182 323.101 248.691 322.61 248.691 322.005V290.487L172.133 213.928C171.706 213.5 171.706 212.807 172.133 212.379C172.561 211.952 173.254 211.952 173.682 212.379L250.561 289.259C250.766 289.464 250.882 289.743 250.882 290.033V322.005C250.882 322.61 250.392 323.101 249.787 323.101Z" fill="white"/>
<path d="M262.747 234.124C262.747 236.527 260.799 238.474 258.397 238.474C255.994 238.474 254.047 236.527 254.047 234.124C254.047 231.722 255.994 229.775 258.397 229.775C260.799 229.774 262.747 231.722 262.747 234.124Z" fill="white"/>
<path d="M217.209 273.919C217.209 276.322 215.261 278.269 212.859 278.269C210.457 278.269 208.509 276.322 208.509 273.919C208.509 271.517 210.456 269.569 212.859 269.569C215.261 269.57 217.209 271.517 217.209 273.919Z" fill="white"/>
</svg>
