<svg width="392" height="527" viewBox="0 0 392 527" fill="none" xmlns="http://www.w3.org/2000/svg">
<path d="M211.03 0.956787L167.937 44.0507V151.74H359.687V0.956787H211.03Z" fill="white"/>
<path d="M360.644 152.696H166.98V43.6544L210.634 0H360.644V152.696ZM168.893 150.783H358.731V1.91278H211.426L168.893 44.4463V150.783Z" fill="#D9D9D9"/>
<path d="M211.987 45.0069H167.937V43.0941H210.074V0.956787H211.987V45.0069Z" fill="#D9D9D9"/>
<path d="M353.353 111.625V102.487C353.353 97.8287 349.577 94.0527 344.919 94.0527H294.949C290.292 94.0527 286.516 97.8287 286.516 102.487V111.625H150.738V253.786C150.738 262.54 157.835 269.636 166.588 269.636H376.884V111.625H353.353Z" fill="white"/>
<path d="M377.84 270.592H166.588C157.321 270.592 149.782 263.053 149.782 253.786V110.668H285.559V102.486C285.559 97.3083 289.772 93.0957 294.949 93.0957H344.92C350.098 93.0957 354.311 97.3083 354.311 102.487V110.668H377.841V270.592H377.84ZM151.695 112.581V253.786C151.695 261.998 158.376 268.679 166.588 268.679H375.928V112.581H352.397V102.487C352.397 98.3636 349.043 95.0089 344.919 95.0089H294.949C290.826 95.0089 287.471 98.3632 287.471 102.487V112.581H151.695Z" fill="#D9D9D9"/>
<path d="M391.845 224.788H381.72V222.875H389.932V27.9103H363.642V25.9976H391.845V224.788Z" fill="#D9D9D9"/>
<path d="M61.2492 71.3774L18.1553 114.471V222.161H209.906V71.3774H61.2492Z" fill="white"/>
<path d="M210.861 223.117H17.1973V114.075L60.8517 70.4214H210.861L210.861 223.117ZM19.11 221.204H208.948V72.3342H61.6435L19.11 114.867V221.204Z" fill="#D9D9D9"/>
<path d="M62.2054 115.428H18.1553V113.515H60.2926V71.3774H62.2054V115.428Z" fill="#D9D9D9"/>
<path d="M203.573 182.046V172.908C203.573 168.25 199.796 164.474 195.138 164.474H145.168C140.51 164.474 136.734 168.25 136.734 172.907V182.046H0.957031V324.207C0.957031 332.96 8.0533 340.057 16.8067 340.057H227.103V182.046H203.573Z" fill="white"/>
<path d="M228.059 341.013H16.8063C7.53934 341.013 0 333.474 0 324.206V181.089H135.777V172.907C135.777 167.729 139.989 163.517 145.168 163.517H195.138C200.316 163.517 204.529 167.729 204.529 172.908V181.089H228.059L228.059 341.013ZM1.91318 183.003V324.206C1.91318 332.419 8.59422 339.1 16.8063 339.1H226.146V183.003H202.616V172.908C202.616 168.784 199.261 165.43 195.137 165.43H145.167C141.044 165.43 137.69 168.784 137.69 172.907V183.002L1.91318 183.003Z" fill="#D9D9D9"/>
<path d="M171.053 232.177L123.92 279.311V397.096H333.647V232.177H171.053Z" fill="white"/>
<path d="M334.603 398.052H122.964V278.915L170.658 231.221H334.603V398.052ZM124.877 396.139H332.69V233.134H171.45L124.876 279.707L124.877 396.139Z" fill="#D9D9D9"/>
<path d="M172.01 280.267H123.92V278.354H170.097V232.177H172.01V280.267Z" fill="#D9D9D9"/>
<path d="M326.719 353.22V343.226C326.719 338.131 322.589 334 317.494 334H262.84C257.745 334 253.615 338.13 253.615 343.225V353.22H105.109V508.708C105.109 518.282 112.871 526.044 122.445 526.044H352.456V353.22H326.719Z" fill="white"/>
<path d="M353.413 527H122.445C112.359 527 104.153 518.794 104.153 508.708V352.263H252.659V343.224C252.659 337.611 257.227 333.043 262.84 333.043H317.495C323.109 333.043 327.676 337.611 327.676 343.225V352.263H353.413V527ZM106.066 354.176V508.708C106.066 517.74 113.414 525.087 122.445 525.087H351.5V354.176H325.763V343.225C325.763 338.666 322.054 334.956 317.495 334.956H262.84C258.281 334.956 254.572 338.665 254.572 343.224V354.176H106.066Z" fill="#D9D9D9"/>
</svg>
